<svg width="56" height="56" viewBox="0 0 56 56" fill="none" xmlns="http://www.w3.org/2000/svg">
<path d="M26.5487 45.5957C16.5131 45.0357 10.3601 41.6407 5.30022 34.8273L8.26122 35.6615C6.27789 34.4808 3.36122 31.164 4.24672 28.1248L8.23439 31.4335C6.49256 28.7443 4.36455 25.7192 4.86855 22.0068L8.25539 24.5712C8.63808 22.6864 9.41757 20.9047 10.5421 19.3445M47.5744 20.0573C48.6332 21.7028 49.0945 23.6621 48.8811 25.6072L50.3487 21.0525C51.5725 23.2972 51.5551 25.2747 50.5354 29.3032L51.7464 27.3618C51.8816 28.2719 51.8206 29.2004 51.5674 30.085C51.3143 30.9695 50.8749 31.7897 50.2787 32.4905L51.9167 30.9563C50.4444 42.1715 41.5871 45.6797 29.6684 45.6797L47.5744 20.0573Z" stroke="#82B93C" stroke-linecap="round" stroke-linejoin="round"/>
<path d="M39.5605 32.424L41.265 34.4657L42.203 32.1802L39.5605 32.424ZM41.2055 36.8667C41.8822 37.9948 42.2182 38.0905 43.6112 37.8945C42.948 38.3157 42.3319 38.807 41.7737 39.3598C40.8474 40.4717 40.88 42.3138 39.7262 43.1865C39.4255 43.3944 39.0549 43.4753 38.6949 43.4117C38.5153 43.3881 38.3426 43.3277 38.1876 43.2341C38.0326 43.1406 37.8986 43.0159 37.7942 42.868C37.156 41.8098 37.7674 40.3877 37.5842 39.165C37.4792 38.458 37.072 37.0802 37.072 37.0802C38.6599 38.1815 40.1042 38.0823 41.2055 36.8678V36.8667Z" stroke="#82B93C" stroke-linecap="round" stroke-linejoin="round"/>
<path d="M31.4416 31.059C32.0228 31.059 32.494 30.3523 32.494 29.4805C32.494 28.6087 32.0228 27.902 31.4416 27.902C30.8604 27.902 30.3893 28.6087 30.3893 29.4805C30.3893 30.3523 30.8604 31.059 31.4416 31.059Z" stroke="#82B93C" stroke-linecap="round" stroke-linejoin="round"/>
<path d="M44.653 31.0718C45.1182 31.0718 45.4953 30.4597 45.4953 29.7045C45.4953 28.9493 45.1182 28.3372 44.653 28.3372C44.1878 28.3372 43.8107 28.9493 43.8107 29.7045C43.8107 30.4597 44.1878 31.0718 44.653 31.0718Z" stroke="#82B93C" stroke-linecap="round" stroke-linejoin="round"/>
<path d="M23.926 11.5827C30.7324 10.213 33.4262 10.6412 37.9435 12.6385M11.466 12.1158C11.457 9.57732 12.223 7.09652 13.6617 5.005C15.8288 5.49198 17.8893 6.36921 19.7424 7.59384L11.466 12.1158ZM23.2214 10.7392C23.9036 11.5606 24.5144 12.4388 25.0472 13.3642L23.2214 10.7392ZM37.7895 14.0163C38.105 12.7466 38.5748 11.5202 39.1884 10.3647L37.7895 14.0163ZM41.1274 7.62067C41.8916 6.75501 42.7506 5.97782 43.6882 5.30367C44.5325 6.11468 45.2151 7.07872 45.6995 8.14451L41.1274 7.62067Z" stroke="#82B93C" stroke-linecap="round" stroke-linejoin="round"/>
<path d="M12.39 15.9203L16.5993 9.60751C19.425 5.36901 38.8197 4.04834 44.8852 10.1127L50.1457 15.3743L48.041 17.4778L42.7805 12.2173C38.5408 7.97767 22.5353 8.59484 19.7563 12.7633L15.547 19.0762L12.39 15.9203Z" stroke="#82B93C" stroke-linecap="round" stroke-linejoin="round"/>
<path d="M43.7441 9.04049C45.7811 7.61016 48.3361 8.26933 49.77 10.5933C50.4705 11.7815 50.8173 13.1448 50.7698 14.5233C50.7223 15.9017 50.2823 17.2379 49.5016 18.375C49.1903 18.8734 48.774 19.2979 48.2817 19.6189C47.7895 19.94 47.2332 20.1499 46.6516 20.2339C46.07 20.318 45.477 20.2742 44.914 20.1057C44.3511 19.9372 43.8316 19.648 43.3918 19.2582C42.4139 18.3045 41.7369 17.0851 41.4448 15.7508C41.1526 14.4164 41.258 13.0257 41.748 11.7507M20.8051 11.8078C21.8613 12.9019 22.5249 14.3154 22.6921 15.8269C22.8593 17.3384 22.5207 18.8627 21.7291 20.1612C20.98 21.4349 19.7977 22.3965 18.3981 22.8706C16.9985 23.3446 15.4751 23.2993 14.1061 22.743C12.7226 22.1381 11.5844 21.0829 10.8765 19.7492C10.1686 18.4154 9.93271 16.8813 10.2071 15.3965C10.4308 13.92 11.1626 12.5678 12.2765 11.5732C13.3904 10.5786 14.8165 10.0039 16.3088 9.94816L20.8051 11.8078Z" stroke="#82B93C" stroke-linecap="round" stroke-linejoin="round"/>
<path d="M13.8226 25.2093C13.7212 25.9758 13.7173 26.7519 13.8109 27.5193C14.1131 28.7747 15.6123 29.666 15.5878 30.9563C15.5306 33.9302 11.4718 35.7583 11.1894 38.7182C10.7811 43.0173 15.8234 46.1242 15.3358 50.9938M13.4143 22.4933L13.0094 24.8243L14.6778 25.3447L15.9238 23.2073L13.4143 22.4933Z" stroke="#82B93C" stroke-linecap="round" stroke-linejoin="round"/>
<path d="M30.5935 36.7908C34.9517 36.7908 38.4848 33.2578 38.4848 28.8995C38.4848 24.5412 34.9517 21.0082 30.5935 21.0082C26.2352 21.0082 22.7021 24.5412 22.7021 28.8995C22.7021 33.2578 26.2352 36.7908 30.5935 36.7908Z" stroke="#82B93C" stroke-linecap="round" stroke-linejoin="round"/>
<path d="M22.225 48.5823L19.1333 50.2623M29.8281 36.8853L29.5878 39.242L29.8281 36.8853ZM29.8048 38.444C29.4313 38.4151 29.0599 38.5213 28.758 38.7431C28.4562 38.9649 28.2439 39.2876 28.1598 39.6526L28.0023 41.4225C27.9724 41.7174 28.0382 42.014 28.1899 42.2686C28.3416 42.5233 28.5711 42.7223 28.8446 42.8365C29.2421 42.8695 29.6384 42.7612 29.9639 42.5307C30.2893 42.3002 30.523 41.9623 30.6238 41.5765L30.8408 40.1007C30.8784 39.7484 30.7967 39.3938 30.6089 39.0934C30.4211 38.7931 30.1379 38.5644 29.8048 38.444V38.444ZM27.412 44.6693L26.5801 45.9795C26.4388 46.1964 26.371 46.453 26.3868 46.7114C26.4025 46.9699 26.501 47.2163 26.6676 47.4145C26.9627 47.599 27.3133 47.6736 27.658 47.6252C28.0026 47.5767 28.3191 47.4084 28.5518 47.1496L29.3125 46.0926C29.4835 45.8324 29.5618 45.5221 29.5344 45.2119C29.5071 44.9017 29.3759 44.6098 29.162 44.3835C28.884 44.215 28.555 44.1511 28.2342 44.2035C27.9134 44.2559 27.6219 44.4211 27.412 44.6693V44.6693ZM23.786 47.138L22.2576 47.4063C21.7851 47.488 21.2286 47.957 21.2543 48.4353C21.3163 48.7778 21.4972 49.0875 21.765 49.3098C22.0328 49.5322 22.3704 49.653 22.7185 49.651L24.0135 49.5016C24.3208 49.4529 24.6028 49.3019 24.8136 49.073C25.0245 48.8441 25.152 48.5508 25.1755 48.2405C25.1132 47.9213 24.9389 47.6349 24.6842 47.4328C24.4295 47.2307 24.1109 47.1261 23.786 47.138V47.138ZM19.9173 50.995C19.9947 50.7833 20.0008 50.5521 19.9347 50.3367C19.8685 50.1212 19.7338 49.9333 19.551 49.8015C19.2783 49.63 18.9555 49.5562 18.6354 49.5922C18.3153 49.6283 18.017 49.772 17.7893 49.9998L16.9143 50.9938L19.9173 50.995ZM29.1351 42.119L28.6416 44.6471L29.1351 42.119ZM27.2101 46.879L24.4451 48.2043L27.2101 46.879Z" stroke="#82B93C" stroke-linecap="round" stroke-linejoin="round"/>
</svg>
