<svg width="70" height="39" viewBox="0 0 70 39" fill="none" xmlns="http://www.w3.org/2000/svg">
<path d="M22.4365 21.8882C22.4365 23.7127 22.0871 25.061 21.3882 25.9331C20.6893 26.8052 19.743 27.2412 18.5493 27.2412C18.0174 27.2412 17.5721 27.1639 17.2134 27.0093V25.4414C17.5721 25.6888 18.0298 25.8125 18.5864 25.8125C20.1017 25.8125 20.8594 24.5044 20.8594 21.8882V12.6294H22.4365V21.8882ZM25.1548 19.9863C25.1548 17.6794 25.7795 15.8363 27.0288 14.457C28.2843 13.0778 29.979 12.3882 32.1128 12.3882C34.092 12.3882 35.6846 13.0623 36.8906 14.4106C38.1029 15.759 38.709 17.4969 38.709 19.6245C38.709 21.9191 38.0967 23.7622 36.8721 25.1538C35.6536 26.5454 33.9868 27.2412 31.8716 27.2412C29.8491 27.2412 28.2225 26.564 26.9917 25.2095C25.7671 23.855 25.1548 22.1139 25.1548 19.9863ZM26.8154 19.8379C26.8154 21.5635 27.2731 22.9922 28.1885 24.124C29.1038 25.2497 30.3285 25.8125 31.8623 25.8125C33.5013 25.8125 34.7754 25.2806 35.6846 24.2168C36.5999 23.1468 37.0576 21.6965 37.0576 19.8657C37.0576 17.9731 36.6154 16.495 35.731 15.4312C34.8527 14.3674 33.6064 13.8354 31.9922 13.8354C30.4212 13.8354 29.1657 14.4045 28.2256 15.5425C27.2855 16.6743 26.8154 18.1061 26.8154 19.8379ZM41.5757 27V12.6294H45.5928C46.7865 12.6294 47.7482 12.9294 48.478 13.5293C49.2078 14.1292 49.5728 14.924 49.5728 15.9136C49.5728 16.7176 49.3563 17.4227 48.9233 18.0288C48.4966 18.6349 47.8905 19.071 47.105 19.3369V19.374C48.0636 19.4668 48.8337 19.8255 49.415 20.4502C50.0026 21.0749 50.2964 21.8851 50.2964 22.8809C50.2964 24.0993 49.8573 25.092 48.979 25.8589C48.1069 26.6196 47.0029 27 45.667 27H41.5757ZM43.1528 14.0952V18.8174H44.897C45.8494 18.8174 46.5916 18.5916 47.1235 18.1401C47.6554 17.6825 47.9214 17.0454 47.9214 16.229C47.9214 14.8065 46.9937 14.0952 45.1382 14.0952H43.1528ZM43.1528 20.2739V25.5342H45.4814C46.471 25.5342 47.2441 25.2992 47.8008 24.8291C48.3636 24.3529 48.645 23.6973 48.645 22.8623C48.645 21.1367 47.4637 20.2739 45.1011 20.2739H43.1528Z" fill="black"/>
<path d="M1 15C1 7.26801 7.26801 1 15 1H67C68.1046 1 69 1.89543 69 3V24C69 31.732 62.732 38 55 38H3C1.89543 38 1 37.1046 1 36V15Z" stroke="#F6B361" stroke-width="2"/>
</svg>
